<?xml version="1.0" encoding="utf-8"?>
<!-- Generator: Adobe Illustrator 26.0.2, SVG Export Plug-In . SVG Version: 6.00 Build 0)  -->
<svg version="1.1" id="Layer_1" xmlns="http://www.w3.org/2000/svg" xmlns:xlink="http://www.w3.org/1999/xlink" x="0px" y="0px"
	 width="492px" height="400px" viewBox="0 0 492 400" style="enable-background:new 0 0 492 400;" xml:space="preserve">
<style type="text/css">
	.st0{fill:#FFFFFF;}
	.st1{fill:#FEFEFE;}
	.st2{fill:#4B4843;}
	.st3{fill:#E03320;}
	.st4{fill:#E03220;}
	.st5{fill:#E03321;}
	.st6{fill:#504E49;}
</style>
<g>
	<path class="st0" d="M470.5,271.7H19.6c-6.6,0-12-5.4-12-12V18.6c0-6.6,5.4-12,12-12h450.9c6.6,0,12,5.4,12,12v241.2
		C482.5,266.3,477.1,271.7,470.5,271.7z"/>
	<g>
		<path class="st1" d="M245,271.7c74.8,0,149.6,0,224.4,0c8.2,0,13.2-5,13.2-13.2c0-10.4,0-20.8,0-31.2c0-2.6,0-2.6-2.4-2
			c-7.4,1.9-14.7,4.5-22.1,6.3c-19.5,4.8-39.3,8.8-59.2,11.9c-22.4,3.5-45,6.4-67.6,8.4c-29.1,2.6-58.2,3.8-87.3,4.2
			c-38.5,0.5-77-1.5-115.4-4.5c-20.5-1.6-40.9-3.8-61.2-6.7c-19.5-2.7-38.9-5.7-58.2-9.7c-1.2-0.2-1.4,0-1.4,1.2
			c0,8.2,0,16.3,0,24.5c0,0.5,0.1,1.1,0.2,1.6c1.5,5.6,6.1,9.1,12.3,9.1C95.1,271.7,170,271.7,245,271.7z M147.3,93.3
			c0.5,0.4,0.7,0.6,0.9,0.7c4.7,2.8,9.6,5.4,14.9,7c6.6,2,13.2,4.1,19.6,6.7c4,1.6,8.1,2.4,12.4,2.4c7.9,0.1,15.8,0.6,23.6,2.5
			c2.8,0.7,5.7,0.1,8.6,0c0.3,0,0.8,0,0.8-0.5c0-0.3-0.3-0.5-0.6-0.6c-1-0.4-1.9-0.7-2.8-1.3c-2-1.5-4.2-2.2-6.7-2.8
			c-7.7-1.7-15.5-2.5-23.1-4.7c-3.2-0.9-6.5-1.9-9.9-2c-3.5-0.2-7-0.6-10.5-1.1c-7.6-1.1-14.8-3.4-22.2-5.3
			C150.8,93.9,149.3,93.4,147.3,93.3z"/>
		<path class="st2" d="M7.7,207.5c0-0.4-0.1-0.8-0.1-1.2c0-62.8,0-125.7,0-188.5c0-5.2,2.6-8.6,7.1-10.8c0.3-0.1,0.7-0.1,0.9-0.5
			c152.9,0,305.7,0,458.6,0c2.4,1.1,4.7,2.5,6.2,4.8c1.4,2,2.1,4.3,2.1,6.7c0,28.3,0,56.5,0,84.8c0,0.2,0,0.5-0.1,0.7
			c-0.3,0.2-0.5,0.3-0.7,0.5c-3.2,2.7-6.4,5.4-9.7,8c-14.9,11.7-30.7,21.9-47.5,30.7c-19.1,10-39.3,17.4-59.8,24
			c-19.2,6.2-38.8,11.4-58.4,16c-14.3,3.3-28.6,6.3-43.1,8.8c-7.1,1.3-14.2,2.5-21.3,3.6c-7.9,1.2-15.7,2.4-23.6,3.5
			c-6.7,0.9-13.4,1.7-20.1,2.5c-5.2,0.6-10.4,1.2-15.6,1.8c-0.2-0.3-0.5-0.5-0.6-0.8c-3.8-6.7-8.8-12.4-14.1-17.9
			c-2.7-2.8-5.2-5.7-7.6-8.8c-6.7-8.7-9-18.4-7.3-29.2c1-6.4,2.3-12.8,3-19.3c0.1-0.6,0.3-1.3,0.4-1.9c0.4-1.2,1.1-1.8,2.4-1.5
			c21.3,4.2,42.6,2.5,63.9,0.7c2.8-0.2,5.5-0.5,8.3-0.8c2.9-0.3,5.6,0,8.2,1.5c2.1,1.2,4.4,1,6.6,0.3c2.3-0.8,4.7-1.5,7.1-2.1
			c3.1-0.7,4.1-2,4.5-5.1c0.4-2.9,0.7-3.2,3.7-3.1c18.3,0.4,36.5,0.8,54.8,1.1c14.6,0.3,29.2,0.5,43.8,0.8
			c10.9,0.2,21.9,0.5,32.8,0.8c3.1,0.1,6.1,0,9.2-0.6c4.4-1,7.1-4.3,7-8.9c0-1.3-0.5-2.4-1.4-3.3c-2.6-2.6-5.6-4.3-9.4-4.5
			c-5.5-0.3-10.9,0.2-16.3,0.7c-12.3,1.1-24.6,2.1-36.8,3.2c-27.6,2.4-55.2,3.7-82.8,5.1c-0.7,0-1.4,0.1-2.1,0.2
			c-1.8,0.4-3.5,0.5-4.9-1c-0.8-0.8-1.9-0.9-3-0.9c-2.5,0-5-0.2-7.2-1.5c-1.9-1.1-3.8-1.3-5.9-1.1c-1.2,0.1-2.3-0.1-3.5-0.4
			c-12.6-4.1-24.8-9-36.5-15.3c-7.6-4.1-15.9-6.1-24-8.4s-16.1-4.8-24.2-7.2c-3.7-1.1-7.2-2.9-10.4-5.1c-1.6-1.1-1.5-3.3,0.3-4.2
			c0.1,0,0.2-0.1,0.3-0.1c2.7-0.8,3.8-2.2,3.3-5.2c-0.5-2.9,0.7-4,3.7-4.4c2.6-0.3,5.2-0.7,7.7-1.5c2.3-0.7,4.2-2,5.6-3.9
			c1.2-1.6,1.3-2.8,0.1-4.5c-1.5-2.3-3.6-3.9-6-5.2c-1.8-1-3.6-1.9-5.4-2.9c-3.1-1.7-5.4-4.1-7-7.2c-0.2-0.4-0.4-0.8-0.6-1.2
			c-3.4-8-9.8-11.8-18-13c-6-0.9-11.9-0.5-17.5,1.7c-7.9,3-12.3,8.7-13.2,17.1c-0.8,7.6-0.7,15.2,1.2,22.7c0.6,2.5,0.1,4.6-1.7,6.4
			c-1.9,1.9-3.9,3.8-5.8,5.7c-6.2,6-9,13.6-9.9,22c-0.8,7.3-0.1,14.6,0.3,21.9c0.6,9.8,1.5,19.5,2.3,29.3c0.5,5.5,1.9,10.8,4.4,15.8
			c1.1,2.3,2.2,4.7,3.2,7c2.9,6.2,3.7,12.8,3.2,19.5c-0.3,5.1-0.8,10.3-0.1,15.4c0.4,2.8,0.9,5.6,1.4,8.3
			c-9.7,0.1-19.5,0.1-29.2,0.2c-9.6,0.2-19.3,0.1-28.9-0.1C25.1,208.2,16.4,207.9,7.7,207.5z"/>
		<path class="st3" d="M245,271.7c-74.9,0-149.9,0-224.8,0c-6.2,0-10.9-3.5-12.3-9.1c-0.1-0.5-0.2-1.1-0.2-1.6c0-8.2,0-16.3,0-24.5
			c0-1.1,0.2-1.4,1.4-1.2c19.3,4,38.7,7,58.2,9.7c20.3,2.8,40.7,5.1,61.2,6.7c38.4,3,76.8,5,115.4,4.5c29.2-0.4,58.3-1.6,87.3-4.2
			c22.6-2,45.1-4.9,67.6-8.4c19.9-3.1,39.6-7.1,59.2-11.9c7.4-1.8,14.7-4.4,22.1-6.3c2.4-0.6,2.4-0.6,2.4,2c0,10.4,0,20.8,0,31.2
			c0,8.2-5,13.2-13.2,13.2C394.5,271.7,319.7,271.7,245,271.7z"/>
		<path class="st4" d="M182.6,202.9c5.2-0.6,10.4-1.2,15.6-1.8c6.7-0.8,13.4-1.6,20.1-2.5c7.9-1.1,15.7-2.2,23.6-3.5
			c7.1-1.1,14.2-2.3,21.3-3.6c14.4-2.6,28.8-5.5,43.1-8.8c19.7-4.6,39.2-9.8,58.4-16c20.5-6.6,40.7-14,59.8-24
			c16.8-8.8,32.6-19,47.5-30.7c3.3-2.6,6.5-5.3,9.7-8c0.2-0.2,0.5-0.3,0.7-0.5c0,5.5,0,11,0.1,16.5c0,9.7,0,19.4,0,29.1
			c0,1-0.3,1.6-1.1,2.2c-6.6,4.8-13.8,8.6-21,12.6c-19.1,10.6-39.3,18.7-59.9,25.7c-27,9.1-54.6,16-82.6,21.3
			c-19.1,3.6-38.3,6.4-57.6,8.8c-12.1,1.5-24.3,2.7-36.5,3.7c-8.9,0.7-17.8,1.3-26.6,2c-2,0.2-3.1-0.3-4-2.2
			c-2.8-6.2-5.8-12.4-9.5-18.1C183.3,204.4,183,203.6,182.6,202.9z"/>
		<path class="st5" d="M7.7,207.5c8.7,0.3,17.4,0.6,26.1,0.8c9.6,0.2,19.3,0.2,28.9,0.1c9.7-0.2,19.5-0.1,29.2-0.2
			c0.5,1.5,0.9,2.9,1.5,4.3c2.4,6.1,7.1,10.1,12.4,13.6c0.4,0.3,0.8,0.5,1.2,0.8v0.1c-2.5,0-4.9,0.1-7.4,0
			c-12.4-0.3-24.7-0.7-37.1-1.4c-11.4-0.6-22.8-1.4-34.2-2.5c-6.5-0.6-13-1.2-19.5-1.8c-0.7-0.1-1.2,0-1.2-1
			C7.7,216.1,7.7,211.8,7.7,207.5z"/>
		<path class="st6" d="M147.3,93.3c2,0.1,3.5,0.6,5,1c7.4,1.9,14.6,4.2,22.2,5.3c3.5,0.5,7,0.9,10.5,1.1c3.4,0.2,6.6,1.1,9.9,2
			c7.6,2.2,15.4,3,23.1,4.7c2.4,0.5,4.7,1.3,6.7,2.8c0.9,0.6,1.8,0.9,2.8,1.3c0.3,0.1,0.6,0.2,0.6,0.6c0,0.5-0.5,0.5-0.8,0.5
			c-2.9,0.1-5.7,0.7-8.6,0c-7.7-1.9-15.6-2.4-23.6-2.5c-4.3,0-8.4-0.8-12.4-2.4c-6.4-2.6-13-4.7-19.6-6.7c-5.2-1.6-10.1-4.2-14.9-7
			C147.9,93.9,147.8,93.7,147.3,93.3z"/>
	</g>
</g>
<g>
	<path class="st0" d="M105.6,290.6h17.1c4.3,0.1,7.6,1.1,9.8,3.4c2.2,2.2,3.4,5.2,3.4,8.9c0.1,1.9-0.4,3.7-1.3,5.4
		c-0.5,0.8-1.1,1.6-2,2.4s-2,1.4-3.2,2.1v0.2c2.4,0.7,4.3,2,5.5,4c1.1,2.1,1.8,4.3,1.8,6.6c-0.1,4-1.2,7.1-3.6,9.4
		c-2.4,2.4-5.3,3.6-8.8,3.6h-18.7V290.6z M112.3,296.7v13.2h9.7c2.4,0,4.3-0.7,5.4-2c1.1-1.2,1.8-2.7,1.8-4.6c0-1.8-0.6-3.4-1.8-4.7
		c-1.1-1.2-3-1.8-5.4-1.8L112.3,296.7L112.3,296.7z M112.3,316v13.8h10.4c2.5-0.1,4.3-0.8,5.5-2.1c1.1-1.4,1.8-3,1.8-4.8
		c0-1.9-0.6-3.5-1.8-4.9c-1.1-1.3-3-2-5.5-2.1L112.3,316L112.3,316z"/>
	<path class="st0" d="M167.5,326.1h-16.8l-3.4,10.2h-7.1l16.1-45.7h5.6l16.2,45.8H171L167.5,326.1z M165.6,320l-6.4-20h-0.2l-6.4,20
		H165.6z"/>
	<path class="st0" d="M184.6,325.2c3.5,3,7.8,4.5,12.6,4.6c5.8-0.1,8.7-2.2,8.8-6.4c0.1-3.4-1.9-5.5-5.8-6.2
		c-1.8-0.2-3.7-0.5-5.9-0.8c-3.8-0.7-6.7-2.1-8.7-4.3c-2.1-2.4-3-5.2-3-8.5c0-4,1.3-7.2,3.9-9.7c2.5-2.4,6-3.7,10.6-3.7
		c5.5,0.2,10.3,1.7,14.4,4.7l-3.7,5.7c-3.4-2.3-7-3.4-11-3.5c-2.1,0-3.8,0.5-5.2,1.6c-1.4,1.1-2.2,2.7-2.2,5c0,1.3,0.5,2.5,1.5,3.6
		c1,1.1,2.6,1.8,4.8,2.3c1.2,0.2,2.9,0.5,5,0.7c4.2,0.6,7.2,2.1,9.2,4.6c2,2.4,3,5.3,3,8.5c-0.2,8.8-5.4,13.2-15.5,13.3
		c-6.6,0-12.2-2.1-16.9-6.2L184.6,325.2z"/>
	<path class="st0" d="M221,290.6h28.3v6.6h-21.6v13.1h18.4v6.2h-18.4v13.5h21.6v6.6H221V290.6z"/>
	<path class="st0" d="M256.7,290.6h17.2c4.3,0.1,7.6,1.1,9.8,3.4c2.2,2.2,3.4,5.2,3.4,8.9c0.1,1.9-0.4,3.7-1.3,5.4
		c-0.5,0.8-1.1,1.6-2,2.4s-2,1.4-3.2,2.1v0.2c2.4,0.7,4.3,2,5.5,4c1.1,2.1,1.8,4.3,1.8,6.6c-0.1,4-1.2,7.1-3.6,9.4
		c-2.4,2.4-5.3,3.6-8.8,3.6h-18.7v-45.9H256.7z M263.4,296.7v13.2h9.7c2.4,0,4.3-0.7,5.4-2c1.1-1.2,1.8-2.7,1.8-4.6
		c0-1.8-0.6-3.4-1.8-4.7c-1.1-1.2-3-1.8-5.4-1.8L263.4,296.7L263.4,296.7z M263.4,316v13.8h10.4c2.5-0.1,4.3-0.8,5.5-2.1
		c1.1-1.4,1.8-3,1.8-4.8c0-1.9-0.6-3.5-1.8-4.9c-1.1-1.3-3-2-5.5-2.1L263.4,316L263.4,316z"/>
	<path class="st0" d="M318.7,326.1h-16.8l-3.4,10.2h-7.1l16.2-45.8h5.6l16.2,45.8h-7.1L318.7,326.1z M316.7,320l-6.4-20h-0.2
		l-6.4,20H316.7z"/>
	<path class="st0" d="M335.2,290.6h6.7v39.2h21.6v6.6h-28.3V290.6z"/>
	<path class="st0" d="M371,290.6h6.7v39.2h21.6v6.6H371V290.6z"/>
	<path class="st0" d="M72.2,343.5h17.2c4.3,0.1,7.6,1.1,9.8,3.4c2.2,2.2,3.4,5.2,3.4,8.9c0.1,1.9-0.4,3.7-1.3,5.4
		c-0.5,0.8-1.1,1.6-2,2.4s-2,1.4-3.2,2.1v0.2c2.4,0.7,4.3,2,5.5,4c1.1,2.1,1.8,4.3,1.8,6.6c-0.1,4-1.2,7.1-3.6,9.4
		c-2.4,2.4-5.3,3.6-8.8,3.6H72.2V343.5z M78.9,349.6v13.2h9.7c2.4,0,4.3-0.7,5.4-2c1.1-1.2,1.8-2.7,1.8-4.6s-0.6-3.4-1.8-4.7
		c-1.1-1.2-3-1.8-5.4-1.8L78.9,349.6L78.9,349.6z M78.9,368.9v13.8h10.4c2.5-0.1,4.3-0.8,5.5-2.1s1.8-3,1.8-4.8
		c0-1.9-0.6-3.5-1.8-4.9c-1.1-1.3-3-2-5.5-2.1L78.9,368.9L78.9,368.9z"/>
	<path class="st0" d="M110.6,343.5h6.8V373c0.1,3.1,0.9,5.5,2.6,7.2c1.7,1.8,3.8,2.6,6.4,2.6c2.6,0,4.8-0.8,6.5-2.6
		c1.7-1.6,2.5-4,2.6-7.2v-29.6h6.7v30.3c-0.1,4.8-1.6,8.6-4.6,11.4c-3,2.9-6.7,4.4-11.2,4.4c-4.4-0.1-8.2-1.5-11.1-4.4
		c-3-2.8-4.6-6.6-4.6-11.4L110.6,343.5L110.6,343.5z"/>
	<path class="st0" d="M152,343.5h6.3l20.1,32.5h0.2v-32.5h6.7v45.8h-6.4l-20-32.5h-0.2v32.5H152C152,389.2,152,343.5,152,343.5z"/>
	<path class="st0" d="M196,343.5h15.5c6,0.1,10.5,2.6,13.5,7.7c1.1,1.8,1.8,3.5,2.1,5.4c0.2,1.9,0.3,5.1,0.3,9.8
		c0,5-0.2,8.4-0.5,10.3c-0.2,1-0.4,1.8-0.8,2.7c-0.4,0.8-0.8,1.5-1.2,2.4c-1.3,2.1-3.1,4-5.4,5.3c-2.3,1.5-5.1,2.3-8.5,2.3H196
		L196,343.5L196,343.5z M202.7,382.7h8.1c3.8,0,6.6-1.3,8.2-4c0.8-1,1.2-2.2,1.4-3.7c0.2-1.5,0.3-4.3,0.3-8.4c0-4-0.1-6.9-0.3-8.5
		c-0.2-1.8-0.8-3.1-1.8-4.2c-1.9-2.7-4.5-4-7.9-3.9h-8.1V382.7z"/>
	<path class="st0" d="M236.5,343.5h28.3v6.6h-21.6v13.1h18.4v6.2h-18.4v13.5h21.6v6.6h-28.3L236.5,343.5L236.5,343.5z"/>
	<path class="st0" d="M272.8,378.1c3.5,3,7.8,4.5,12.6,4.6c5.8-0.1,8.7-2.2,8.8-6.4c0.1-3.4-1.9-5.5-5.8-6.2
		c-1.8-0.2-3.7-0.5-5.9-0.8c-3.8-0.7-6.7-2.1-8.7-4.3c-2.1-2.4-3-5.2-3-8.5c0-4,1.3-7.2,3.9-9.7c2.5-2.4,6-3.7,10.6-3.7
		c5.5,0.2,10.3,1.7,14.4,4.7l-3.7,5.7c-3.4-2.3-7-3.4-11-3.5c-2.1,0-3.8,0.5-5.2,1.6c-1.4,1.1-2.2,2.7-2.2,5c0,1.3,0.5,2.5,1.5,3.6
		c1,1.1,2.6,1.8,4.8,2.3c1.2,0.2,2.9,0.5,5,0.7c4.2,0.6,7.2,2.1,9.2,4.6c2,2.4,3,5.3,3,8.5c-0.2,8.8-5.4,13.2-15.5,13.3
		c-6.6,0-12.2-2.1-16.9-6.2L272.8,378.1z"/>
	<path class="st0" d="M309.2,343.5h6.7v39.2h21.6v6.6h-28.3L309.2,343.5L309.2,343.5z"/>
	<path class="st0" d="M345,343.5h6.7v45.8H345V343.5z"/>
	<path class="st0" d="M375.9,364h15.8v9.3c-0.1,4.6-1.6,8.4-4.6,11.5c-3,3-6.7,4.6-11.3,4.7c-3.5-0.1-6.4-1-8.8-2.7
		c-2.4-1.6-4.1-3.5-5.2-5.6c-0.3-0.7-0.6-1.4-0.9-2c-0.2-0.7-0.5-1.4-0.6-2.4c-0.3-1.8-0.5-5.4-0.5-10.6c0-5.3,0.2-8.9,0.5-10.7
		c0.3-1.8,0.8-3.3,1.5-4.3c1.1-2.1,2.8-4,5.2-5.6c2.4-1.7,5.3-2.5,8.8-2.6c4.3,0.1,7.8,1.4,10.4,4c2.7,2.6,4.4,5.8,5.1,9.7h-7.2
		c-0.5-1.8-1.5-3.4-3-4.7c-1.5-1.2-3.4-1.9-5.5-1.9c-1.6,0.1-3,0.4-4.1,1c-1.1,0.6-2.1,1.4-2.8,2.4c-0.8,1-1.4,2.3-1.8,3.8
		c-0.3,1.6-0.5,4.7-0.5,9.2s0.2,7.5,0.5,9.1c0.3,1.6,0.8,2.9,1.8,3.9c0.7,0.9,1.7,1.7,2.8,2.3c1.1,0.7,2.5,1.1,4.1,1.1
		c2.6,0,4.8-0.9,6.5-2.7c1.7-1.8,2.6-4.1,2.6-6.9v-2.6h-9.1V364H375.9z"/>
	<path class="st0" d="M423.6,379h-16.8l-3.4,10.2h-7.1l16.2-45.8h5.6l16.2,45.8h-7.1L423.6,379z M421.7,372.9l-6.4-20h-0.2l-6.4,20
		H421.7z"/>
</g>
</svg>
